<?xml version="1.0" encoding="UTF-8"?>
<svg width="301px" height="18px" viewBox="0 0 301 18" version="1.1" xmlns="http://www.w3.org/2000/svg" xmlns:xlink="http://www.w3.org/1999/xlink">
    <title>Logo_CM</title>
    <g id="APP-FRAMEWORK---outlined" stroke="none" stroke-width="1" fill="none" fill-rule="evenodd">
        <g id="submenu-expanded" transform="translate(-79.000000, -23.000000)" fill="#192129" fill-rule="nonzero">
            <path d="M356.756503,27.6774998 C358.043503,27.6774998 359.396503,27.8094998 360.386503,27.9909998 C360.601004,28.0239998 360.733004,28.1724998 360.733004,28.4034998 L360.733004,28.4034998 L360.733004,36.802 C360.716504,39.277 360.238003,40.4155001 356.690503,40.4155001 C355.684003,40.4155001 354.595003,40.3495001 353.638003,40.1845001 C353.489503,40.1680001 353.407003,40.1020001 353.407003,39.9205001 L353.407003,39.9205001 L353.407003,38.6665 C353.407003,38.485 353.473003,38.419 353.638003,38.419 L353.638003,38.419 L356.476003,38.419 C357.928003,38.419 358.274503,38.089 358.274503,37 L358.274503,37 L358.274503,36.901 C357.565003,37.033 356.954503,37.0825 356.261503,37.0825 C353.258503,37.0825 352.450003,36.043 352.450003,32.2479999 C352.450003,28.6509998 353.275003,27.6774998 356.756503,27.6774998 Z M220.3015,27.6774998 C223.783001,27.6774998 224.608001,28.6674998 224.608001,32.2479999 C224.608001,36.043 223.799501,37.0825 220.7965,37.0825 C220.1035,37.0825 219.4765,37.066 218.767,36.9835 L218.767,36.9835 L218.767,40.0690001 C218.767,40.2340001 218.6845,40.3165001 218.5195,40.3165001 L218.5195,40.3165001 L216.5725,40.3165001 C216.4075,40.3165001 216.325,40.2340001 216.325,40.0690001 L216.325,40.0690001 L216.325,28.4034998 C216.325,28.1724998 216.457,28.0404998 216.6715,27.9909998 C218.0245,27.7764998 219.163,27.6774998 220.3015,27.6774998 Z M182.398039,24.5664569 C184.34475,24.5664569 186.68367,24.7181289 188.719177,25.1688016 L188.719177,27.2138227 L177.701378,27.2138227 L177.701378,29.5638423 L185.627067,29.5638423 C188.009007,29.5638423 188.895806,30.2058975 188.895806,32.5326838 L188.895806,34.1226199 C188.895806,35.8909775 188.381293,36.4123845 186.973156,36.8372039 C185.446991,37.3000103 182.738405,37.5861189 181.125236,37.5861189 C179.216375,37.5861189 176.837882,37.4611274 174.808373,36.9966664 L174.808373,34.9516453 L186.00542,34.9516453 L186.00542,32.1732901 L178.080558,32.1732901 C175.697722,32.1732901 174.810993,31.5175155 174.810993,29.1907292 L174.810993,27.976457 C174.810993,26.1426047 175.353909,25.5893466 176.842225,25.2041687 C178.340814,24.816371 180.79597,24.5664569 182.398039,24.5664569 Z M162.851311,24.566388 C165.114326,24.566388 167.42305,24.7086149 169.743769,25.1688016 L169.743769,27.2793174 L159.260339,27.2793174 L159.260339,29.6431254 L166.086406,29.6431254 L166.086406,32.0974541 L159.260339,32.0974541 L159.260339,34.8887014 L169.798923,34.8887014 L169.798923,36.9992172 C167.478203,37.4594038 165.141076,37.5860499 162.879784,37.5860499 C160.617596,37.5860499 158.238207,37.4594038 155.916661,36.9992172 L155.916661,25.1688016 C158.238207,24.7086149 160.589192,24.566388 162.851311,24.566388 Z M142.813372,24.8602869 L142.813372,34.732755 L151.914588,34.732755 L151.914588,36.9992172 C149.831718,37.4611274 147.731544,37.5860499 145.714099,37.5860499 C143.696724,37.5860499 141.553461,37.4611274 139.471418,36.9992172 L139.471418,24.8602869 L142.813372,24.8602869 Z M128.866512,24.8663538 L135.463347,37.0733297 C134.350833,37.3930818 132.879753,37.5067668 131.783578,37.5257258 L126.637968,27.1310925 L126.350136,27.1310925 L121.205352,37.5257258 C120.108281,37.5067668 118.816519,37.3930818 117.704832,37.0733297 L124.220661,24.8663538 L128.866512,24.8663538 Z M110.333228,24.6542888 C111.467321,24.6750403 112.607412,24.7861745 113.67601,25.0938618 L113.67601,37.087118 C112.609135,37.3939091 111.467321,37.5059395 110.333228,37.5257258 L110.333228,32.2224456 L102.03091,32.2224456 L102.03091,37.5257258 C100.895921,37.5059395 99.75583,37.3939091 98.6889554,37.087118 L98.6889554,25.0938618 C99.75583,24.7861745 100.895921,24.6750403 102.03091,24.6542888 L102.03091,29.7723913 L110.333228,29.7723913 L110.333228,24.6542888 Z M86.524103,24.5723859 C88.9853258,24.5723859 91.5137669,24.7163364 94.032763,25.1747995 L94.032763,27.3102723 L88.1709851,27.3102723 L88.1709851,37.3129025 L84.8617779,37.3129025 L84.8617779,27.3102723 L79,27.3102723 L79,25.1747995 C81.5240978,24.7154402 84.0594331,24.5723859 86.524103,24.5723859 Z M275.263002,27.7599998 C275.428002,27.7599998 275.494002,27.8424998 275.494002,28.0074998 L275.494002,28.0074998 L275.494805,32.6951928 C275.511726,34.8621059 275.805439,34.9705 277.276002,34.9705 L278.761002,34.9705 L278.761002,28.0074998 C278.761002,27.8424998 278.843502,27.7599998 279.008502,27.7599998 L279.008502,27.7599998 L280.988502,27.7599998 C281.153502,27.7599998 281.219502,27.8424998 281.219502,28.0074998 L281.219502,28.0074998 L281.219502,36.5215 C281.219502,36.736 281.153502,36.769 280.988502,36.802 C279.866502,37.0165 278.266002,37.0825 277.028502,37.0825 C273.860502,37.0825 273.052002,36.4885 273.052002,33.1059999 L273.052002,33.1059999 L273.052002,28.0074998 C273.052002,27.8424998 273.151002,27.7599998 273.316002,27.7599998 L273.316002,27.7599998 Z M287.539002,27.6774998 C288.248502,27.6774998 289.189002,27.7269998 290.146002,27.8919998 C290.344002,27.9414998 290.410002,28.0074998 290.410002,28.1559998 L290.410002,28.1559998 L290.410002,29.4099998 C290.410002,29.5914998 290.344002,29.6739998 290.129502,29.6739998 L290.129502,29.6739998 L287.159502,29.6739998 C286.516002,29.6739998 286.186002,29.8554998 286.186002,30.2679999 L286.186002,30.2679999 L286.186002,30.4329999 C286.186002,30.7464999 286.384002,30.9774999 286.978002,31.1919999 L286.978002,31.1919999 L289.090002,31.9344999 C290.492502,32.4294999 290.822502,33.2874999 290.822502,34.4094999 L290.822502,34.4094999 L290.822502,34.6734999 C290.822502,36.5875 289.403502,37.0825 287.308002,37.0825 C285.872502,37.0825 284.684502,37 283.892502,36.9175 C283.678002,36.9175 283.612002,36.8515 283.612002,36.67 L283.612002,36.67 L283.612002,35.3335 C283.612002,35.152 283.694502,35.086 283.892502,35.086 L283.892502,35.086 L287.275002,35.086 C288.149502,35.086 288.413502,34.9705 288.413502,34.5249999 L288.413502,34.5249999 L288.413502,34.3764999 C288.413502,34.0629999 288.232002,33.8484999 287.506002,33.6009999 L287.506002,33.6009999 L285.476502,32.8749999 C284.173002,32.4294999 283.793502,31.4229999 283.793502,30.3669999 L283.793502,30.3669999 L283.793502,30.0534998 C283.793502,28.2879998 285.163002,27.6774998 287.539002,27.6774998 Z M295.937502,25.2024997 C296.102502,25.1529997 296.201502,25.2684997 296.201502,25.4499997 L296.201502,25.4499997 L296.201502,27.8094998 L297.719502,27.8094998 C297.901002,27.8094998 298.000002,27.8919998 298.000002,28.0569998 L298.000002,28.0569998 L298.000002,29.3769998 C298.000002,29.5419998 297.901002,29.6244998 297.719502,29.6244998 L297.719502,29.6244998 L296.201502,29.6244998 L296.201502,34.1289999 C296.201502,34.8385 296.449002,34.9705 297.175002,34.9705 L297.175002,34.9705 L297.851502,34.9705 C298.049502,34.9705 298.132002,35.0365 298.132002,35.218 L298.132002,35.218 L298.132002,36.6205 C298.132002,36.8185 298.049502,36.901 297.868002,36.934 C297.290502,37.0495 296.828502,37.0825 296.465502,37.0825 C295.046502,37.0825 293.759502,37.033 293.759502,34.954 L293.759502,34.954 L293.759502,29.6244998 L292.786002,29.6244998 C292.604502,29.6244998 292.522002,29.5419998 292.522002,29.3769998 L292.522002,29.3769998 L292.522002,28.0569998 C292.522002,27.8919998 292.604502,27.8094998 292.786002,27.8094998 L292.786002,27.8094998 L293.759502,27.8094998 L293.759502,25.9779998 C293.759502,25.8129998 293.825502,25.7469998 293.990502,25.7139998 L293.990502,25.7139998 Z M367.382504,27.6774998 C370.633004,27.6774998 371.425004,28.5849998 371.441504,32.2644999 L371.441504,32.2644999 L371.441504,32.7759999 C371.441504,33.1059999 371.342504,33.2214999 370.913504,33.2214999 L370.913504,33.2214999 L365.732504,33.2214999 C365.765504,34.7065 366.161504,34.9705 367.597004,34.9705 L367.597004,34.9705 L370.517504,34.9705 C370.682504,34.9705 370.765004,35.053 370.765004,35.218 L370.765004,35.218 L370.765004,36.5875 C370.765004,36.769 370.682504,36.835 370.534004,36.8515 C369.659504,37.033 368.471504,37.0825 367.382504,37.0825 C364.049504,37.0825 363.241004,36.142 363.241004,32.3799999 C363.241004,28.6014998 364.049504,27.6774998 367.382504,27.6774998 Z M205.0885,24.1299997 C206.5405,24.1299997 207.5305,24.2289997 208.339,24.3774997 C208.5865,24.4434997 208.7185,24.5424997 208.7185,24.8229997 L208.7185,24.8229997 L208.7185,26.1429998 C208.7185,26.3079998 208.636,26.3904998 208.471,26.3904998 L208.471,26.3904998 L205.0885,26.3904998 C202.8115,26.3904998 202.4155,27.3804998 202.4155,30.5979999 C202.4155,33.8154999 202.8115,34.822 205.0885,34.822 L205.0885,34.822 L208.471,34.822 C208.636,34.822 208.7185,34.9045 208.7185,35.0695 L208.7185,35.0695 L208.7185,36.406 C208.7185,36.67 208.5865,36.769 208.339,36.835 C207.5305,37 206.5405,37.0825 205.0885,37.0825 C200.881,37.0825 199.792,35.5975 199.792,30.5979999 C199.792,25.5984998 200.881,24.1299997 205.0885,24.1299997 Z M345.998503,27.6774998 C349.265503,27.6774998 349.991503,28.7334998 349.991503,30.5154999 L349.991503,30.5154999 L349.991503,36.2245 C349.991503,36.4885 349.925503,36.637 349.628503,36.736 C348.473503,37 347.021503,37.0825 345.883003,37.0825 C343.408003,37.0825 342.104503,36.8185 342.071503,34.2279999 C342.104503,32.0004999 343.259503,31.5219999 345.454003,31.5219999 L345.454003,31.5219999 L347.549503,31.5219999 L347.549503,30.9279999 C347.549503,30.1359999 347.054503,29.7894998 345.998503,29.7894998 L345.998503,29.7894998 L343.012003,29.7894998 C342.830503,29.7894998 342.781003,29.7399998 342.781003,29.5419998 L342.781003,29.5419998 L342.781003,28.1889998 C342.781003,27.9909998 342.847003,27.9579998 343.012003,27.9249998 C344.018503,27.7269998 344.975503,27.6774998 345.998503,27.6774998 Z M324.944503,27.6774998 C328.211503,27.6774998 328.937503,28.7334998 328.937503,30.5154999 L328.937503,30.5154999 L328.937503,36.2245 C328.937503,36.4885 328.871503,36.637 328.574503,36.736 C327.419503,37 325.967503,37.0825 324.829003,37.0825 C322.354003,37.0825 321.050503,36.8185 321.017503,34.2279999 C321.050503,32.0004999 322.205503,31.5219999 324.400003,31.5219999 L324.400003,31.5219999 L326.495503,31.5219999 L326.495503,30.9279999 C326.495503,30.1359999 326.000503,29.7894998 324.944503,29.7894998 L324.944503,29.7894998 L321.958003,29.7894998 C321.776503,29.7894998 321.727003,29.7399998 321.727003,29.5419998 L321.727003,29.5419998 L321.727003,28.1889998 C321.727003,27.9909998 321.793003,27.9579998 321.958003,27.9249998 C322.964503,27.7269998 323.921503,27.6774998 324.944503,27.6774998 Z M241.883501,27.6774998 C245.134001,27.6774998 245.926001,28.5849998 245.942501,32.2644999 L245.942501,32.2644999 L245.942501,32.7759999 C245.942501,33.1059999 245.843501,33.2214999 245.414501,33.2214999 L245.414501,33.2214999 L240.233501,33.2214999 C240.266501,34.7065 240.662501,34.9705 242.098001,34.9705 L242.098001,34.9705 L245.018501,34.9705 C245.183501,34.9705 245.266001,35.053 245.266001,35.218 L245.266001,35.218 L245.266001,36.5875 C245.266001,36.769 245.183501,36.835 245.035001,36.8515 C244.160501,37.033 242.972501,37.0825 241.883501,37.0825 C238.550501,37.0825 237.742001,36.142 237.742001,32.3799999 C237.742001,28.6014998 238.550501,27.6774998 241.883501,27.6774998 Z M376.771004,27.6774998 C377.249504,27.6774998 378.388004,27.7269998 378.965504,27.8589998 C379.147004,27.9084998 379.229504,27.9744998 379.229504,28.1889998 L379.229504,28.1889998 L379.229504,29.5419998 C379.229504,29.7069998 379.130504,29.7894998 378.949004,29.7894998 L378.949004,29.7894998 L377.398004,29.7894998 C376.540004,29.7894998 376.243004,29.9214998 376.243004,30.6309999 L376.243004,30.6309999 L376.243004,36.736 C376.243004,36.9175 376.160504,37 375.995504,37 L375.995504,37 L374.032004,37 C373.867004,37 373.784504,36.9175 373.784504,36.736 L373.784504,36.736 L373.784504,30.0039998 C373.784504,27.9249998 375.269504,27.6774998 376.771004,27.6774998 Z M263.333501,24.2289997 C263.498501,24.2289997 263.597501,24.3114997 263.597501,24.4764997 L263.597501,24.4764997 L263.597501,26.2419998 C263.597501,26.4069998 263.498501,26.4894998 263.333501,26.4894998 L263.333501,26.4894998 L259.885001,26.4894998 L259.885001,36.736 C259.885001,36.9175 259.802501,37 259.637501,37 L259.637501,37 L257.542001,37 C257.377001,37 257.294501,36.9175 257.294501,36.736 L257.294501,36.736 L257.294501,26.4894998 L253.846001,26.4894998 C253.681001,26.4894998 253.598501,26.4069998 253.598501,26.2419998 L253.598501,26.2419998 L253.598501,24.4764997 C253.598501,24.3114997 253.681001,24.2289997 253.846001,24.2289997 L253.846001,24.2289997 Z M268.630002,27.6774998 C269.108502,27.6774998 270.247002,27.7269998 270.824502,27.8589998 C271.006002,27.9084998 271.088502,27.9744998 271.088502,28.1889998 L271.088502,28.1889998 L271.088502,29.5419998 C271.088502,29.7069998 270.989502,29.7894998 270.808002,29.7894998 L270.808002,29.7894998 L269.257002,29.7894998 C268.399002,29.7894998 268.102001,29.9214998 268.102001,30.6309999 L268.102001,30.6309999 L268.102001,36.736 C268.102001,36.9175 268.019501,37 267.854501,37 L267.854501,37 L265.891001,37 C265.726001,37 265.643501,36.9175 265.643501,36.736 L265.643501,36.736 L265.643501,30.0039998 C265.643501,27.9249998 267.128501,27.6774998 268.630002,27.6774998 Z M251.272001,27.6774998 C251.750501,27.6774998 252.889001,27.7269998 253.466501,27.8589998 C253.648001,27.9084998 253.730501,27.9744998 253.730501,28.1889998 L253.730501,28.1889998 L253.730501,29.5419998 C253.730501,29.7069998 253.631501,29.7894998 253.450001,29.7894998 L253.450001,29.7894998 L251.899001,29.7894998 C251.041001,29.7894998 250.744001,29.9214998 250.744001,30.6309999 L250.744001,30.6309999 L250.744001,36.736 C250.744001,36.9175 250.661501,37 250.496501,37 L250.496501,37 L248.533001,37 C248.368001,37 248.285501,36.9175 248.285501,36.736 L248.285501,36.736 L248.285501,30.0039998 C248.285501,27.9249998 249.770501,27.6774998 251.272001,27.6774998 Z M213.289,27.7599998 C213.454,27.7599998 213.5365,27.8424998 213.5365,28.0074998 L213.5365,28.0074998 L213.5365,36.736 C213.5365,36.9175 213.454,37 213.289,37 L213.289,37 L211.342,37 C211.177,37 211.0945,36.9175 211.0945,36.736 L211.0945,36.736 L211.0945,28.0074998 C211.0945,27.8424998 211.177,27.7599998 211.342,27.7599998 L211.342,27.7599998 Z M317.618503,24.2124997 C317.783503,24.2124997 317.816503,24.3279997 317.833003,24.4764997 L317.833003,24.4764997 L319.021003,36.736 C319.037503,36.9175 318.938503,37 318.773503,37 L318.773503,37 L316.678003,37 C316.513003,37 316.447003,36.9175 316.430503,36.736 L316.430503,36.736 L315.704503,28.8159998 L312.734502,36.3565 C312.668502,36.5215 312.553002,36.604 312.388002,36.604 L312.388002,36.604 L310.820502,36.604 C310.672002,36.604 310.556502,36.5215 310.474002,36.3565 L310.474002,36.3565 L307.520502,28.8159998 L306.794502,36.736 C306.778002,36.9175 306.712002,37 306.547002,37 L306.547002,37 L304.451502,37 C304.286502,37 304.187502,36.9175 304.204002,36.736 L304.204002,36.736 L305.392002,24.4929997 C305.408502,24.3279997 305.441502,24.2289997 305.606502,24.2289997 L305.606502,24.2289997 L307.603002,24.2289997 C308.131002,24.2289997 308.329002,24.3609997 308.543502,24.8724997 L308.543502,24.8724997 L311.612502,32.9079999 L314.681503,24.8724997 C314.879503,24.3444997 315.094003,24.2124997 315.622003,24.2124997 L315.622003,24.2124997 Z M229.310501,24.2289997 C229.475501,24.2289997 229.558001,24.3279997 229.558001,24.4929997 L229.558001,24.4929997 L229.558001,27.7599998 C230.168501,27.6939998 230.845001,27.6774998 231.307001,27.6774998 C234.458501,27.6774998 235.283501,28.2714998 235.283501,31.6374999 L235.283501,31.6374999 L235.283501,36.736 C235.283501,36.9175 235.201001,37 235.036001,37 L235.036001,37 L233.072501,37 C232.907501,37 232.841501,36.9175 232.841501,36.736 L232.841501,36.736 L232.841501,32.2644999 C232.841501,29.9049998 232.577501,29.7894998 231.059501,29.7894998 L229.574501,29.7894998 L229.574501,36.736 C229.574501,36.9175 229.492001,37 229.327001,37 L229.327001,37 L227.347001,37 C227.182001,37 227.116001,36.9175 227.116001,36.736 L227.116001,36.736 L227.116001,24.4929997 C227.116001,24.3279997 227.198501,24.2289997 227.363501,24.2289997 L227.363501,24.2289997 Z M335.851003,27.6774998 C339.019003,27.6774998 339.844003,28.2714998 339.844003,31.6374999 L339.844003,31.6374999 L339.844003,36.736 C339.844003,36.9175 339.745003,37 339.580003,37 L339.580003,37 L337.633003,37 C337.468003,37 337.385503,36.9175 337.385503,36.736 L337.385503,36.736 L337.385503,32.2644999 C337.385503,29.9049998 337.138003,29.7894998 335.620003,29.7894998 L334.118503,29.7894998 L334.118503,36.736 C334.118503,36.9175 334.036003,37 333.871003,37 L333.871003,37 L331.907503,37 C331.742503,37 331.660003,36.9175 331.660003,36.736 L331.660003,36.736 L331.660003,28.2054998 C331.660003,28.0074998 331.742503,27.9909998 331.907503,27.9579998 C333.013003,27.7104998 334.613503,27.6774998 335.851003,27.6774998 Z M126.496568,31.8078984 C127.688434,31.8078984 128.674302,32.7748074 128.674302,33.9709479 C128.674302,35.1653649 127.690985,36.1348247 126.496568,36.1348247 C125.300427,36.1348247 124.333587,35.1636413 124.333587,33.9709479 C124.333587,32.7773583 125.303047,31.8078984 126.496568,31.8078984 Z M326.495503,33.1059999 L324.598003,33.1059999 C323.740003,33.1059999 323.443003,33.3864999 323.443003,34.0959999 C323.443003,34.888 323.806003,35.1025 324.845503,35.1025 C325.175503,35.1025 326.017003,35.0695 326.495503,34.9375 L326.495503,34.9375 L326.495503,33.1059999 Z M347.549503,33.1059999 L345.652003,33.1059999 C344.794003,33.1059999 344.497003,33.3864999 344.497003,34.0959999 C344.497003,34.888 344.860003,35.1025 345.899503,35.1025 C346.229503,35.1025 347.071003,35.0695 347.549503,34.9375 L347.549503,34.9375 L347.549503,33.1059999 Z M220.417,29.7894998 L218.767,29.7894998 L218.767,34.855 C219.2455,34.921 219.823,34.954 220.252,34.954 C221.9185,34.954 222.166001,34.5084999 222.166001,32.3799999 C222.166001,30.4329999 222.034,29.7894998 220.417,29.7894998 L220.417,29.7894998 Z M358.274503,29.7894998 L356.641003,29.7894998 C355.040503,29.7894998 354.892003,30.4164999 354.892003,32.3634999 L354.892872,32.5708395 C354.91008,34.5222866 355.195053,34.954 356.806003,34.954 C357.218503,34.954 357.812503,34.9375 358.274503,34.855 L358.274503,34.855 L358.274503,29.7894998 Z M241.883501,29.7894998 C240.646001,29.7894998 240.233501,30.1689999 240.217001,31.6209999 L240.217001,31.6209999 L243.484001,31.6209999 C243.467501,30.1689999 243.088001,29.7894998 241.883501,29.7894998 Z M367.382504,29.7894998 C366.145004,29.7894998 365.732504,30.1689999 365.716004,31.6209999 L365.716004,31.6209999 L368.983004,31.6209999 C368.966504,30.1689999 368.587004,29.7894998 367.382504,29.7894998 Z M212.332,23.8659997 C213.2395,23.8659997 213.751,24.3444997 213.751,25.1859997 C213.751,26.0274998 213.2395,26.5224998 212.332,26.5224998 C211.408,26.5224998 210.88,26.0274998 210.88,25.1859997 C210.88,24.3444997 211.408,23.8659997 212.332,23.8659997 Z" id="Logo_CM"></path>
        </g>
    </g>
</svg>